<mxfile host="app.diagrams.net" agent="Mozilla/5.0 (X11; Linux x86_64; rv:133.0) Gecko/20100101 Firefox/133.0" version="26.0.4">
  <diagram name="Page-1" id="MnJ3xkJ2rMsswwnhAQDd">
    <mxGraphModel dx="3259" dy="2300" grid="1" gridSize="10" guides="1" tooltips="1" connect="1" arrows="1" fold="1" page="1" pageScale="1" pageWidth="827" pageHeight="1169" math="0" shadow="0">
      <root>
        <mxCell id="0" />
        <mxCell id="1" parent="0" />
        <mxCell id="mjQdr636xFa8WtX7F-hk-1" value="Role" style="shape=table;startSize=30;container=1;collapsible=1;childLayout=tableLayout;fixedRows=1;rowLines=0;fontStyle=1;align=center;resizeLast=1;" vertex="1" parent="1">
          <mxGeometry x="1100" y="-50" width="120" height="130" as="geometry" />
        </mxCell>
        <mxCell id="mjQdr636xFa8WtX7F-hk-2" value="" style="shape=partialRectangle;collapsible=0;dropTarget=0;pointerEvents=0;fillColor=none;points=[[0,0.5],[1,0.5]];portConstraint=eastwest;top=0;left=0;right=0;bottom=1;" vertex="1" parent="mjQdr636xFa8WtX7F-hk-1">
          <mxGeometry y="30" width="120" height="30" as="geometry" />
        </mxCell>
        <mxCell id="mjQdr636xFa8WtX7F-hk-3" value="PK" style="shape=partialRectangle;overflow=hidden;connectable=0;fillColor=none;top=0;left=0;bottom=0;right=0;fontStyle=1;" vertex="1" parent="mjQdr636xFa8WtX7F-hk-2">
          <mxGeometry width="30" height="30" as="geometry">
            <mxRectangle width="30" height="30" as="alternateBounds" />
          </mxGeometry>
        </mxCell>
        <mxCell id="mjQdr636xFa8WtX7F-hk-4" value="id_role" style="shape=partialRectangle;overflow=hidden;connectable=0;fillColor=none;top=0;left=0;bottom=0;right=0;align=left;spacingLeft=6;fontStyle=5;" vertex="1" parent="mjQdr636xFa8WtX7F-hk-2">
          <mxGeometry x="30" width="90" height="30" as="geometry">
            <mxRectangle width="90" height="30" as="alternateBounds" />
          </mxGeometry>
        </mxCell>
        <mxCell id="mjQdr636xFa8WtX7F-hk-5" value="" style="shape=partialRectangle;collapsible=0;dropTarget=0;pointerEvents=0;fillColor=none;points=[[0,0.5],[1,0.5]];portConstraint=eastwest;top=0;left=0;right=0;bottom=0;" vertex="1" parent="mjQdr636xFa8WtX7F-hk-1">
          <mxGeometry y="60" width="120" height="30" as="geometry" />
        </mxCell>
        <mxCell id="mjQdr636xFa8WtX7F-hk-6" value="" style="shape=partialRectangle;overflow=hidden;connectable=0;fillColor=none;top=0;left=0;bottom=0;right=0;" vertex="1" parent="mjQdr636xFa8WtX7F-hk-5">
          <mxGeometry width="30" height="30" as="geometry">
            <mxRectangle width="30" height="30" as="alternateBounds" />
          </mxGeometry>
        </mxCell>
        <mxCell id="mjQdr636xFa8WtX7F-hk-7" value="nazev    " style="shape=partialRectangle;overflow=hidden;connectable=0;fillColor=none;top=0;left=0;bottom=0;right=0;align=left;spacingLeft=6;" vertex="1" parent="mjQdr636xFa8WtX7F-hk-5">
          <mxGeometry x="30" width="90" height="30" as="geometry">
            <mxRectangle width="90" height="30" as="alternateBounds" />
          </mxGeometry>
        </mxCell>
        <mxCell id="mjQdr636xFa8WtX7F-hk-8" value="" style="shape=partialRectangle;collapsible=0;dropTarget=0;pointerEvents=0;fillColor=none;points=[[0,0.5],[1,0.5]];portConstraint=eastwest;top=0;left=0;right=0;bottom=0;" vertex="1" parent="mjQdr636xFa8WtX7F-hk-1">
          <mxGeometry y="90" width="120" height="30" as="geometry" />
        </mxCell>
        <mxCell id="mjQdr636xFa8WtX7F-hk-9" value="" style="shape=partialRectangle;overflow=hidden;connectable=0;fillColor=none;top=0;left=0;bottom=0;right=0;" vertex="1" parent="mjQdr636xFa8WtX7F-hk-8">
          <mxGeometry width="30" height="30" as="geometry">
            <mxRectangle width="30" height="30" as="alternateBounds" />
          </mxGeometry>
        </mxCell>
        <mxCell id="mjQdr636xFa8WtX7F-hk-10" value="popis" style="shape=partialRectangle;overflow=hidden;connectable=0;fillColor=none;top=0;left=0;bottom=0;right=0;align=left;spacingLeft=6;" vertex="1" parent="mjQdr636xFa8WtX7F-hk-8">
          <mxGeometry x="30" width="90" height="30" as="geometry">
            <mxRectangle width="90" height="30" as="alternateBounds" />
          </mxGeometry>
        </mxCell>
        <mxCell id="mjQdr636xFa8WtX7F-hk-11" value="role_uzivatelu" style="shape=table;startSize=30;container=1;collapsible=1;childLayout=tableLayout;fixedRows=1;rowLines=0;fontStyle=1;align=center;resizeLast=1;" vertex="1" parent="1">
          <mxGeometry x="780" y="8" width="180" height="220" as="geometry" />
        </mxCell>
        <mxCell id="mjQdr636xFa8WtX7F-hk-12" value="" style="shape=partialRectangle;collapsible=0;dropTarget=0;pointerEvents=0;fillColor=none;points=[[0,0.5],[1,0.5]];portConstraint=eastwest;top=0;left=0;right=0;bottom=1;" vertex="1" parent="mjQdr636xFa8WtX7F-hk-11">
          <mxGeometry y="30" width="180" height="30" as="geometry" />
        </mxCell>
        <mxCell id="mjQdr636xFa8WtX7F-hk-13" value="PK" style="shape=partialRectangle;overflow=hidden;connectable=0;fillColor=none;top=0;left=0;bottom=0;right=0;fontStyle=1;" vertex="1" parent="mjQdr636xFa8WtX7F-hk-12">
          <mxGeometry width="30" height="30" as="geometry">
            <mxRectangle width="30" height="30" as="alternateBounds" />
          </mxGeometry>
        </mxCell>
        <mxCell id="mjQdr636xFa8WtX7F-hk-14" value="id_role_uzivatelu" style="shape=partialRectangle;overflow=hidden;connectable=0;fillColor=none;top=0;left=0;bottom=0;right=0;align=left;spacingLeft=6;fontStyle=5;" vertex="1" parent="mjQdr636xFa8WtX7F-hk-12">
          <mxGeometry x="30" width="150" height="30" as="geometry">
            <mxRectangle width="150" height="30" as="alternateBounds" />
          </mxGeometry>
        </mxCell>
        <mxCell id="mjQdr636xFa8WtX7F-hk-15" value="" style="shape=partialRectangle;collapsible=0;dropTarget=0;pointerEvents=0;fillColor=none;points=[[0,0.5],[1,0.5]];portConstraint=eastwest;top=0;left=0;right=0;bottom=0;" vertex="1" parent="mjQdr636xFa8WtX7F-hk-11">
          <mxGeometry y="60" width="180" height="30" as="geometry" />
        </mxCell>
        <mxCell id="mjQdr636xFa8WtX7F-hk-16" value="FK" style="shape=partialRectangle;overflow=hidden;connectable=0;fillColor=none;top=0;left=0;bottom=0;right=0;" vertex="1" parent="mjQdr636xFa8WtX7F-hk-15">
          <mxGeometry width="30" height="30" as="geometry">
            <mxRectangle width="30" height="30" as="alternateBounds" />
          </mxGeometry>
        </mxCell>
        <mxCell id="mjQdr636xFa8WtX7F-hk-17" value="id_uzivatele" style="shape=partialRectangle;overflow=hidden;connectable=0;fillColor=none;top=0;left=0;bottom=0;right=0;align=left;spacingLeft=6;" vertex="1" parent="mjQdr636xFa8WtX7F-hk-15">
          <mxGeometry x="30" width="150" height="30" as="geometry">
            <mxRectangle width="150" height="30" as="alternateBounds" />
          </mxGeometry>
        </mxCell>
        <mxCell id="mjQdr636xFa8WtX7F-hk-18" value="" style="shape=partialRectangle;collapsible=0;dropTarget=0;pointerEvents=0;fillColor=none;points=[[0,0.5],[1,0.5]];portConstraint=eastwest;top=0;left=0;right=0;bottom=0;" vertex="1" parent="mjQdr636xFa8WtX7F-hk-11">
          <mxGeometry y="90" width="180" height="30" as="geometry" />
        </mxCell>
        <mxCell id="mjQdr636xFa8WtX7F-hk-19" value="FK" style="shape=partialRectangle;overflow=hidden;connectable=0;fillColor=none;top=0;left=0;bottom=0;right=0;" vertex="1" parent="mjQdr636xFa8WtX7F-hk-18">
          <mxGeometry width="30" height="30" as="geometry">
            <mxRectangle width="30" height="30" as="alternateBounds" />
          </mxGeometry>
        </mxCell>
        <mxCell id="mjQdr636xFa8WtX7F-hk-20" value="id_role" style="shape=partialRectangle;overflow=hidden;connectable=0;fillColor=none;top=0;left=0;bottom=0;right=0;align=left;spacingLeft=6;" vertex="1" parent="mjQdr636xFa8WtX7F-hk-18">
          <mxGeometry x="30" width="150" height="30" as="geometry">
            <mxRectangle width="150" height="30" as="alternateBounds" />
          </mxGeometry>
        </mxCell>
        <mxCell id="mjQdr636xFa8WtX7F-hk-21" style="shape=partialRectangle;collapsible=0;dropTarget=0;pointerEvents=0;fillColor=none;points=[[0,0.5],[1,0.5]];portConstraint=eastwest;top=0;left=0;right=0;bottom=0;" vertex="1" parent="mjQdr636xFa8WtX7F-hk-11">
          <mxGeometry y="120" width="180" height="30" as="geometry" />
        </mxCell>
        <mxCell id="mjQdr636xFa8WtX7F-hk-22" style="shape=partialRectangle;overflow=hidden;connectable=0;fillColor=none;top=0;left=0;bottom=0;right=0;" vertex="1" parent="mjQdr636xFa8WtX7F-hk-21">
          <mxGeometry width="30" height="30" as="geometry">
            <mxRectangle width="30" height="30" as="alternateBounds" />
          </mxGeometry>
        </mxCell>
        <mxCell id="mjQdr636xFa8WtX7F-hk-23" value="od" style="shape=partialRectangle;overflow=hidden;connectable=0;fillColor=none;top=0;left=0;bottom=0;right=0;align=left;spacingLeft=6;" vertex="1" parent="mjQdr636xFa8WtX7F-hk-21">
          <mxGeometry x="30" width="150" height="30" as="geometry">
            <mxRectangle width="150" height="30" as="alternateBounds" />
          </mxGeometry>
        </mxCell>
        <mxCell id="mjQdr636xFa8WtX7F-hk-24" style="shape=partialRectangle;collapsible=0;dropTarget=0;pointerEvents=0;fillColor=none;points=[[0,0.5],[1,0.5]];portConstraint=eastwest;top=0;left=0;right=0;bottom=0;" vertex="1" parent="mjQdr636xFa8WtX7F-hk-11">
          <mxGeometry y="150" width="180" height="30" as="geometry" />
        </mxCell>
        <mxCell id="mjQdr636xFa8WtX7F-hk-25" style="shape=partialRectangle;overflow=hidden;connectable=0;fillColor=none;top=0;left=0;bottom=0;right=0;" vertex="1" parent="mjQdr636xFa8WtX7F-hk-24">
          <mxGeometry width="30" height="30" as="geometry">
            <mxRectangle width="30" height="30" as="alternateBounds" />
          </mxGeometry>
        </mxCell>
        <mxCell id="mjQdr636xFa8WtX7F-hk-26" value="do" style="shape=partialRectangle;overflow=hidden;connectable=0;fillColor=none;top=0;left=0;bottom=0;right=0;align=left;spacingLeft=6;" vertex="1" parent="mjQdr636xFa8WtX7F-hk-24">
          <mxGeometry x="30" width="150" height="30" as="geometry">
            <mxRectangle width="150" height="30" as="alternateBounds" />
          </mxGeometry>
        </mxCell>
        <mxCell id="mjQdr636xFa8WtX7F-hk-27" style="shape=partialRectangle;collapsible=0;dropTarget=0;pointerEvents=0;fillColor=none;points=[[0,0.5],[1,0.5]];portConstraint=eastwest;top=0;left=0;right=0;bottom=0;" vertex="1" parent="mjQdr636xFa8WtX7F-hk-11">
          <mxGeometry y="180" width="180" height="30" as="geometry" />
        </mxCell>
        <mxCell id="mjQdr636xFa8WtX7F-hk-28" value="FK" style="shape=partialRectangle;overflow=hidden;connectable=0;fillColor=none;top=0;left=0;bottom=0;right=0;" vertex="1" parent="mjQdr636xFa8WtX7F-hk-27">
          <mxGeometry width="30" height="30" as="geometry">
            <mxRectangle width="30" height="30" as="alternateBounds" />
          </mxGeometry>
        </mxCell>
        <mxCell id="mjQdr636xFa8WtX7F-hk-29" value="zadat" style="shape=partialRectangle;overflow=hidden;connectable=0;fillColor=none;top=0;left=0;bottom=0;right=0;align=left;spacingLeft=6;" vertex="1" parent="mjQdr636xFa8WtX7F-hk-27">
          <mxGeometry x="30" width="150" height="30" as="geometry">
            <mxRectangle width="150" height="30" as="alternateBounds" />
          </mxGeometry>
        </mxCell>
        <mxCell id="mjQdr636xFa8WtX7F-hk-30" value="Uživatelé" style="shape=table;startSize=30;container=1;collapsible=1;childLayout=tableLayout;fixedRows=1;rowLines=0;fontStyle=1;align=center;resizeLast=1;" vertex="1" parent="1">
          <mxGeometry x="490" y="-160" width="170" height="214" as="geometry" />
        </mxCell>
        <mxCell id="mjQdr636xFa8WtX7F-hk-31" value="" style="shape=partialRectangle;collapsible=0;dropTarget=0;pointerEvents=0;fillColor=none;points=[[0,0.5],[1,0.5]];portConstraint=eastwest;top=0;left=0;right=0;bottom=1;" vertex="1" parent="mjQdr636xFa8WtX7F-hk-30">
          <mxGeometry y="30" width="170" height="30" as="geometry" />
        </mxCell>
        <mxCell id="mjQdr636xFa8WtX7F-hk-32" value="PK" style="shape=partialRectangle;overflow=hidden;connectable=0;fillColor=none;top=0;left=0;bottom=0;right=0;fontStyle=1;" vertex="1" parent="mjQdr636xFa8WtX7F-hk-31">
          <mxGeometry width="30" height="30" as="geometry">
            <mxRectangle width="30" height="30" as="alternateBounds" />
          </mxGeometry>
        </mxCell>
        <mxCell id="mjQdr636xFa8WtX7F-hk-33" value="id_uzivatele" style="shape=partialRectangle;overflow=hidden;connectable=0;fillColor=none;top=0;left=0;bottom=0;right=0;align=left;spacingLeft=6;fontStyle=5;" vertex="1" parent="mjQdr636xFa8WtX7F-hk-31">
          <mxGeometry x="30" width="140" height="30" as="geometry">
            <mxRectangle width="140" height="30" as="alternateBounds" />
          </mxGeometry>
        </mxCell>
        <mxCell id="mjQdr636xFa8WtX7F-hk-34" value="" style="shape=partialRectangle;collapsible=0;dropTarget=0;pointerEvents=0;fillColor=none;points=[[0,0.5],[1,0.5]];portConstraint=eastwest;top=0;left=0;right=0;bottom=0;" vertex="1" parent="mjQdr636xFa8WtX7F-hk-30">
          <mxGeometry y="60" width="170" height="30" as="geometry" />
        </mxCell>
        <mxCell id="mjQdr636xFa8WtX7F-hk-35" value="" style="shape=partialRectangle;overflow=hidden;connectable=0;fillColor=none;top=0;left=0;bottom=0;right=0;" vertex="1" parent="mjQdr636xFa8WtX7F-hk-34">
          <mxGeometry width="30" height="30" as="geometry">
            <mxRectangle width="30" height="30" as="alternateBounds" />
          </mxGeometry>
        </mxCell>
        <mxCell id="mjQdr636xFa8WtX7F-hk-36" value="jmeno" style="shape=partialRectangle;overflow=hidden;connectable=0;fillColor=none;top=0;left=0;bottom=0;right=0;align=left;spacingLeft=6;" vertex="1" parent="mjQdr636xFa8WtX7F-hk-34">
          <mxGeometry x="30" width="140" height="30" as="geometry">
            <mxRectangle width="140" height="30" as="alternateBounds" />
          </mxGeometry>
        </mxCell>
        <mxCell id="mjQdr636xFa8WtX7F-hk-37" style="shape=partialRectangle;collapsible=0;dropTarget=0;pointerEvents=0;fillColor=none;points=[[0,0.5],[1,0.5]];portConstraint=eastwest;top=0;left=0;right=0;bottom=0;" vertex="1" parent="mjQdr636xFa8WtX7F-hk-30">
          <mxGeometry y="90" width="170" height="30" as="geometry" />
        </mxCell>
        <mxCell id="mjQdr636xFa8WtX7F-hk-38" style="shape=partialRectangle;overflow=hidden;connectable=0;fillColor=none;top=0;left=0;bottom=0;right=0;" vertex="1" parent="mjQdr636xFa8WtX7F-hk-37">
          <mxGeometry width="30" height="30" as="geometry">
            <mxRectangle width="30" height="30" as="alternateBounds" />
          </mxGeometry>
        </mxCell>
        <mxCell id="mjQdr636xFa8WtX7F-hk-39" value="prijmeni" style="shape=partialRectangle;overflow=hidden;connectable=0;fillColor=none;top=0;left=0;bottom=0;right=0;align=left;spacingLeft=6;" vertex="1" parent="mjQdr636xFa8WtX7F-hk-37">
          <mxGeometry x="30" width="140" height="30" as="geometry">
            <mxRectangle width="140" height="30" as="alternateBounds" />
          </mxGeometry>
        </mxCell>
        <mxCell id="mjQdr636xFa8WtX7F-hk-40" style="shape=partialRectangle;collapsible=0;dropTarget=0;pointerEvents=0;fillColor=none;points=[[0,0.5],[1,0.5]];portConstraint=eastwest;top=0;left=0;right=0;bottom=0;" vertex="1" parent="mjQdr636xFa8WtX7F-hk-30">
          <mxGeometry y="120" width="170" height="30" as="geometry" />
        </mxCell>
        <mxCell id="mjQdr636xFa8WtX7F-hk-41" style="shape=partialRectangle;overflow=hidden;connectable=0;fillColor=none;top=0;left=0;bottom=0;right=0;" vertex="1" parent="mjQdr636xFa8WtX7F-hk-40">
          <mxGeometry width="30" height="30" as="geometry">
            <mxRectangle width="30" height="30" as="alternateBounds" />
          </mxGeometry>
        </mxCell>
        <mxCell id="mjQdr636xFa8WtX7F-hk-42" value="email" style="shape=partialRectangle;overflow=hidden;connectable=0;fillColor=none;top=0;left=0;bottom=0;right=0;align=left;spacingLeft=6;" vertex="1" parent="mjQdr636xFa8WtX7F-hk-40">
          <mxGeometry x="30" width="140" height="30" as="geometry">
            <mxRectangle width="140" height="30" as="alternateBounds" />
          </mxGeometry>
        </mxCell>
        <mxCell id="mjQdr636xFa8WtX7F-hk-43" style="shape=partialRectangle;collapsible=0;dropTarget=0;pointerEvents=0;fillColor=none;points=[[0,0.5],[1,0.5]];portConstraint=eastwest;top=0;left=0;right=0;bottom=0;" vertex="1" parent="mjQdr636xFa8WtX7F-hk-30">
          <mxGeometry y="150" width="170" height="27" as="geometry" />
        </mxCell>
        <mxCell id="mjQdr636xFa8WtX7F-hk-44" style="shape=partialRectangle;overflow=hidden;connectable=0;fillColor=none;top=0;left=0;bottom=0;right=0;" vertex="1" parent="mjQdr636xFa8WtX7F-hk-43">
          <mxGeometry width="30" height="27" as="geometry">
            <mxRectangle width="30" height="27" as="alternateBounds" />
          </mxGeometry>
        </mxCell>
        <mxCell id="mjQdr636xFa8WtX7F-hk-45" value="heslo" style="shape=partialRectangle;overflow=hidden;connectable=0;fillColor=none;top=0;left=0;bottom=0;right=0;align=left;spacingLeft=6;" vertex="1" parent="mjQdr636xFa8WtX7F-hk-43">
          <mxGeometry x="30" width="140" height="27" as="geometry">
            <mxRectangle width="140" height="27" as="alternateBounds" />
          </mxGeometry>
        </mxCell>
        <mxCell id="mjQdr636xFa8WtX7F-hk-46" style="shape=partialRectangle;collapsible=0;dropTarget=0;pointerEvents=0;fillColor=none;points=[[0,0.5],[1,0.5]];portConstraint=eastwest;top=0;left=0;right=0;bottom=0;" vertex="1" parent="mjQdr636xFa8WtX7F-hk-30">
          <mxGeometry y="177" width="170" height="27" as="geometry" />
        </mxCell>
        <mxCell id="mjQdr636xFa8WtX7F-hk-47" style="shape=partialRectangle;overflow=hidden;connectable=0;fillColor=none;top=0;left=0;bottom=0;right=0;" vertex="1" parent="mjQdr636xFa8WtX7F-hk-46">
          <mxGeometry width="30" height="27" as="geometry">
            <mxRectangle width="30" height="27" as="alternateBounds" />
          </mxGeometry>
        </mxCell>
        <mxCell id="mjQdr636xFa8WtX7F-hk-48" value="datum_registrace" style="shape=partialRectangle;overflow=hidden;connectable=0;fillColor=none;top=0;left=0;bottom=0;right=0;align=left;spacingLeft=6;fontStyle=0" vertex="1" parent="mjQdr636xFa8WtX7F-hk-46">
          <mxGeometry x="30" width="140" height="27" as="geometry">
            <mxRectangle width="140" height="27" as="alternateBounds" />
          </mxGeometry>
        </mxCell>
        <mxCell id="mjQdr636xFa8WtX7F-hk-49" value="" style="edgeStyle=entityRelationEdgeStyle;fontSize=12;html=1;endArrow=ERmany;rounded=0;exitX=0;exitY=0.5;exitDx=0;exitDy=0;entryX=1;entryY=0.5;entryDx=0;entryDy=0;" edge="1" parent="1" source="mjQdr636xFa8WtX7F-hk-2" target="mjQdr636xFa8WtX7F-hk-18">
          <mxGeometry width="100" height="100" relative="1" as="geometry">
            <mxPoint x="1220" y="250" as="sourcePoint" />
            <mxPoint x="1320" y="150" as="targetPoint" />
            <Array as="points">
              <mxPoint x="1060" y="10" />
            </Array>
          </mxGeometry>
        </mxCell>
        <mxCell id="mjQdr636xFa8WtX7F-hk-50" value="&lt;div&gt;Role přiřazená uživatelům&lt;/div&gt;" style="edgeLabel;html=1;align=center;verticalAlign=middle;resizable=0;points=[];" vertex="1" connectable="0" parent="mjQdr636xFa8WtX7F-hk-49">
          <mxGeometry x="-0.0599" y="4" relative="1" as="geometry">
            <mxPoint x="-7" y="-11" as="offset" />
          </mxGeometry>
        </mxCell>
        <mxCell id="mjQdr636xFa8WtX7F-hk-51" value="" style="edgeStyle=entityRelationEdgeStyle;fontSize=12;html=1;endArrow=ERmany;rounded=0;exitX=1;exitY=0.5;exitDx=0;exitDy=0;" edge="1" parent="1" source="mjQdr636xFa8WtX7F-hk-31" target="mjQdr636xFa8WtX7F-hk-12">
          <mxGeometry width="100" height="100" relative="1" as="geometry">
            <mxPoint x="540" y="410" as="sourcePoint" />
            <mxPoint x="640" y="310" as="targetPoint" />
            <Array as="points">
              <mxPoint x="730" y="-60" />
              <mxPoint x="790" y="90" />
              <mxPoint x="740" y="80" />
              <mxPoint x="820" y="80" />
            </Array>
          </mxGeometry>
        </mxCell>
        <mxCell id="mjQdr636xFa8WtX7F-hk-52" value="Přiřazení role uživateli" style="edgeLabel;html=1;align=center;verticalAlign=middle;resizable=0;points=[];" vertex="1" connectable="0" parent="mjQdr636xFa8WtX7F-hk-51">
          <mxGeometry x="0.2349" relative="1" as="geometry">
            <mxPoint x="-2" y="-43" as="offset" />
          </mxGeometry>
        </mxCell>
        <mxCell id="mjQdr636xFa8WtX7F-hk-53" value="" style="edgeStyle=entityRelationEdgeStyle;fontSize=12;html=1;endArrow=ERzeroToMany;startArrow=ERmandOne;rounded=0;exitX=1;exitY=0.224;exitDx=0;exitDy=0;exitPerimeter=0;" edge="1" parent="1" source="mjQdr636xFa8WtX7F-hk-43" target="mjQdr636xFa8WtX7F-hk-27">
          <mxGeometry width="100" height="100" relative="1" as="geometry">
            <mxPoint x="660" y="270" as="sourcePoint" />
            <mxPoint x="760" y="170" as="targetPoint" />
            <Array as="points">
              <mxPoint x="770" y="390" />
            </Array>
          </mxGeometry>
        </mxCell>
        <mxCell id="mjQdr636xFa8WtX7F-hk-54" value="Zadat roli" style="edgeLabel;html=1;align=center;verticalAlign=middle;resizable=0;points=[];" vertex="1" connectable="0" parent="mjQdr636xFa8WtX7F-hk-53">
          <mxGeometry x="-0.0004" relative="1" as="geometry">
            <mxPoint x="-4" y="3" as="offset" />
          </mxGeometry>
        </mxCell>
        <mxCell id="mjQdr636xFa8WtX7F-hk-55" value="Kola" style="shape=table;startSize=30;container=1;collapsible=1;childLayout=tableLayout;fixedRows=1;rowLines=0;fontStyle=1;align=center;resizeLast=1;" vertex="1" parent="1">
          <mxGeometry x="-460" y="-130" width="170" height="130" as="geometry" />
        </mxCell>
        <mxCell id="mjQdr636xFa8WtX7F-hk-56" value="" style="shape=partialRectangle;collapsible=0;dropTarget=0;pointerEvents=0;fillColor=none;points=[[0,0.5],[1,0.5]];portConstraint=eastwest;top=0;left=0;right=0;bottom=1;" vertex="1" parent="mjQdr636xFa8WtX7F-hk-55">
          <mxGeometry y="30" width="170" height="30" as="geometry" />
        </mxCell>
        <mxCell id="mjQdr636xFa8WtX7F-hk-57" value="PK" style="shape=partialRectangle;overflow=hidden;connectable=0;fillColor=none;top=0;left=0;bottom=0;right=0;fontStyle=1;" vertex="1" parent="mjQdr636xFa8WtX7F-hk-56">
          <mxGeometry width="30" height="30" as="geometry">
            <mxRectangle width="30" height="30" as="alternateBounds" />
          </mxGeometry>
        </mxCell>
        <mxCell id="mjQdr636xFa8WtX7F-hk-58" value="id_kolo" style="shape=partialRectangle;overflow=hidden;connectable=0;fillColor=none;top=0;left=0;bottom=0;right=0;align=left;spacingLeft=6;fontStyle=5;" vertex="1" parent="mjQdr636xFa8WtX7F-hk-56">
          <mxGeometry x="30" width="140" height="30" as="geometry">
            <mxRectangle width="140" height="30" as="alternateBounds" />
          </mxGeometry>
        </mxCell>
        <mxCell id="mjQdr636xFa8WtX7F-hk-59" value="" style="shape=partialRectangle;collapsible=0;dropTarget=0;pointerEvents=0;fillColor=none;points=[[0,0.5],[1,0.5]];portConstraint=eastwest;top=0;left=0;right=0;bottom=0;" vertex="1" parent="mjQdr636xFa8WtX7F-hk-55">
          <mxGeometry y="60" width="170" height="30" as="geometry" />
        </mxCell>
        <mxCell id="mjQdr636xFa8WtX7F-hk-60" value="" style="shape=partialRectangle;overflow=hidden;connectable=0;fillColor=none;top=0;left=0;bottom=0;right=0;" vertex="1" parent="mjQdr636xFa8WtX7F-hk-59">
          <mxGeometry width="30" height="30" as="geometry">
            <mxRectangle width="30" height="30" as="alternateBounds" />
          </mxGeometry>
        </mxCell>
        <mxCell id="mjQdr636xFa8WtX7F-hk-61" value="id_typ_kola" style="shape=partialRectangle;overflow=hidden;connectable=0;fillColor=none;top=0;left=0;bottom=0;right=0;align=left;spacingLeft=6;" vertex="1" parent="mjQdr636xFa8WtX7F-hk-59">
          <mxGeometry x="30" width="140" height="30" as="geometry">
            <mxRectangle width="140" height="30" as="alternateBounds" />
          </mxGeometry>
        </mxCell>
        <mxCell id="mjQdr636xFa8WtX7F-hk-62" style="shape=partialRectangle;collapsible=0;dropTarget=0;pointerEvents=0;fillColor=none;points=[[0,0.5],[1,0.5]];portConstraint=eastwest;top=0;left=0;right=0;bottom=0;" vertex="1" parent="mjQdr636xFa8WtX7F-hk-55">
          <mxGeometry y="90" width="170" height="30" as="geometry" />
        </mxCell>
        <mxCell id="mjQdr636xFa8WtX7F-hk-63" style="shape=partialRectangle;overflow=hidden;connectable=0;fillColor=none;top=0;left=0;bottom=0;right=0;" vertex="1" parent="mjQdr636xFa8WtX7F-hk-62">
          <mxGeometry width="30" height="30" as="geometry">
            <mxRectangle width="30" height="30" as="alternateBounds" />
          </mxGeometry>
        </mxCell>
        <mxCell id="mjQdr636xFa8WtX7F-hk-64" value="inventarni_cislo" style="shape=partialRectangle;overflow=hidden;connectable=0;fillColor=none;top=0;left=0;bottom=0;right=0;align=left;spacingLeft=6;" vertex="1" parent="mjQdr636xFa8WtX7F-hk-62">
          <mxGeometry x="30" width="140" height="30" as="geometry">
            <mxRectangle width="140" height="30" as="alternateBounds" />
          </mxGeometry>
        </mxCell>
        <mxCell id="mjQdr636xFa8WtX7F-hk-68" value="Servisní_pozadavky" style="shape=table;startSize=30;container=1;collapsible=1;childLayout=tableLayout;fixedRows=1;rowLines=0;fontStyle=1;align=center;resizeLast=1;" vertex="1" parent="1">
          <mxGeometry x="130" y="-620" width="170" height="235" as="geometry" />
        </mxCell>
        <mxCell id="mjQdr636xFa8WtX7F-hk-69" value="" style="shape=partialRectangle;collapsible=0;dropTarget=0;pointerEvents=0;fillColor=none;points=[[0,0.5],[1,0.5]];portConstraint=eastwest;top=0;left=0;right=0;bottom=1;" vertex="1" parent="mjQdr636xFa8WtX7F-hk-68">
          <mxGeometry y="30" width="170" height="30" as="geometry" />
        </mxCell>
        <mxCell id="mjQdr636xFa8WtX7F-hk-70" value="PK" style="shape=partialRectangle;overflow=hidden;connectable=0;fillColor=none;top=0;left=0;bottom=0;right=0;fontStyle=1;" vertex="1" parent="mjQdr636xFa8WtX7F-hk-69">
          <mxGeometry width="30" height="30" as="geometry">
            <mxRectangle width="30" height="30" as="alternateBounds" />
          </mxGeometry>
        </mxCell>
        <mxCell id="mjQdr636xFa8WtX7F-hk-71" value="id_pozadavek" style="shape=partialRectangle;overflow=hidden;connectable=0;fillColor=none;top=0;left=0;bottom=0;right=0;align=left;spacingLeft=6;fontStyle=5;" vertex="1" parent="mjQdr636xFa8WtX7F-hk-69">
          <mxGeometry x="30" width="140" height="30" as="geometry">
            <mxRectangle width="140" height="30" as="alternateBounds" />
          </mxGeometry>
        </mxCell>
        <mxCell id="mjQdr636xFa8WtX7F-hk-72" style="shape=partialRectangle;collapsible=0;dropTarget=0;pointerEvents=0;fillColor=none;points=[[0,0.5],[1,0.5]];portConstraint=eastwest;top=0;left=0;right=0;bottom=0;" vertex="1" parent="mjQdr636xFa8WtX7F-hk-68">
          <mxGeometry y="60" width="170" height="27" as="geometry" />
        </mxCell>
        <mxCell id="mjQdr636xFa8WtX7F-hk-73" style="shape=partialRectangle;overflow=hidden;connectable=0;fillColor=none;top=0;left=0;bottom=0;right=0;" vertex="1" parent="mjQdr636xFa8WtX7F-hk-72">
          <mxGeometry width="30" height="27" as="geometry">
            <mxRectangle width="30" height="27" as="alternateBounds" />
          </mxGeometry>
        </mxCell>
        <mxCell id="mjQdr636xFa8WtX7F-hk-74" value="id_kolo" style="shape=partialRectangle;overflow=hidden;connectable=0;fillColor=none;top=0;left=0;bottom=0;right=0;align=left;spacingLeft=6;" vertex="1" parent="mjQdr636xFa8WtX7F-hk-72">
          <mxGeometry x="30" width="140" height="27" as="geometry">
            <mxRectangle width="140" height="27" as="alternateBounds" />
          </mxGeometry>
        </mxCell>
        <mxCell id="mjQdr636xFa8WtX7F-hk-75" style="shape=partialRectangle;collapsible=0;dropTarget=0;pointerEvents=0;fillColor=none;points=[[0,0.5],[1,0.5]];portConstraint=eastwest;top=0;left=0;right=0;bottom=0;" vertex="1" parent="mjQdr636xFa8WtX7F-hk-68">
          <mxGeometry y="87" width="170" height="30" as="geometry" />
        </mxCell>
        <mxCell id="mjQdr636xFa8WtX7F-hk-76" style="shape=partialRectangle;overflow=hidden;connectable=0;fillColor=none;top=0;left=0;bottom=0;right=0;" vertex="1" parent="mjQdr636xFa8WtX7F-hk-75">
          <mxGeometry width="30" height="30" as="geometry">
            <mxRectangle width="30" height="30" as="alternateBounds" />
          </mxGeometry>
        </mxCell>
        <mxCell id="mjQdr636xFa8WtX7F-hk-77" value="id_manažer" style="shape=partialRectangle;overflow=hidden;connectable=0;fillColor=none;top=0;left=0;bottom=0;right=0;align=left;spacingLeft=6;" vertex="1" parent="mjQdr636xFa8WtX7F-hk-75">
          <mxGeometry x="30" width="140" height="30" as="geometry">
            <mxRectangle width="140" height="30" as="alternateBounds" />
          </mxGeometry>
        </mxCell>
        <mxCell id="mjQdr636xFa8WtX7F-hk-78" style="shape=partialRectangle;collapsible=0;dropTarget=0;pointerEvents=0;fillColor=none;points=[[0,0.5],[1,0.5]];portConstraint=eastwest;top=0;left=0;right=0;bottom=0;" vertex="1" parent="mjQdr636xFa8WtX7F-hk-68">
          <mxGeometry y="117" width="170" height="27" as="geometry" />
        </mxCell>
        <mxCell id="mjQdr636xFa8WtX7F-hk-79" style="shape=partialRectangle;overflow=hidden;connectable=0;fillColor=none;top=0;left=0;bottom=0;right=0;" vertex="1" parent="mjQdr636xFa8WtX7F-hk-78">
          <mxGeometry width="30" height="27" as="geometry">
            <mxRectangle width="30" height="27" as="alternateBounds" />
          </mxGeometry>
        </mxCell>
        <mxCell id="mjQdr636xFa8WtX7F-hk-80" value="popis_problemu" style="shape=partialRectangle;overflow=hidden;connectable=0;fillColor=none;top=0;left=0;bottom=0;right=0;align=left;spacingLeft=6;" vertex="1" parent="mjQdr636xFa8WtX7F-hk-78">
          <mxGeometry x="30" width="140" height="27" as="geometry">
            <mxRectangle width="140" height="27" as="alternateBounds" />
          </mxGeometry>
        </mxCell>
        <mxCell id="mjQdr636xFa8WtX7F-hk-81" style="shape=partialRectangle;collapsible=0;dropTarget=0;pointerEvents=0;fillColor=none;points=[[0,0.5],[1,0.5]];portConstraint=eastwest;top=0;left=0;right=0;bottom=0;" vertex="1" parent="mjQdr636xFa8WtX7F-hk-68">
          <mxGeometry y="144" width="170" height="27" as="geometry" />
        </mxCell>
        <mxCell id="mjQdr636xFa8WtX7F-hk-82" style="shape=partialRectangle;overflow=hidden;connectable=0;fillColor=none;top=0;left=0;bottom=0;right=0;" vertex="1" parent="mjQdr636xFa8WtX7F-hk-81">
          <mxGeometry width="30" height="27" as="geometry">
            <mxRectangle width="30" height="27" as="alternateBounds" />
          </mxGeometry>
        </mxCell>
        <mxCell id="mjQdr636xFa8WtX7F-hk-83" value="stav" style="shape=partialRectangle;overflow=hidden;connectable=0;fillColor=none;top=0;left=0;bottom=0;right=0;align=left;spacingLeft=6;" vertex="1" parent="mjQdr636xFa8WtX7F-hk-81">
          <mxGeometry x="30" width="140" height="27" as="geometry">
            <mxRectangle width="140" height="27" as="alternateBounds" />
          </mxGeometry>
        </mxCell>
        <mxCell id="mjQdr636xFa8WtX7F-hk-84" style="shape=partialRectangle;collapsible=0;dropTarget=0;pointerEvents=0;fillColor=none;points=[[0,0.5],[1,0.5]];portConstraint=eastwest;top=0;left=0;right=0;bottom=0;" vertex="1" parent="mjQdr636xFa8WtX7F-hk-68">
          <mxGeometry y="171" width="170" height="27" as="geometry" />
        </mxCell>
        <mxCell id="mjQdr636xFa8WtX7F-hk-85" style="shape=partialRectangle;overflow=hidden;connectable=0;fillColor=none;top=0;left=0;bottom=0;right=0;" vertex="1" parent="mjQdr636xFa8WtX7F-hk-84">
          <mxGeometry width="30" height="27" as="geometry">
            <mxRectangle width="30" height="27" as="alternateBounds" />
          </mxGeometry>
        </mxCell>
        <mxCell id="mjQdr636xFa8WtX7F-hk-86" value="datum_vytvoreni" style="shape=partialRectangle;overflow=hidden;connectable=0;fillColor=none;top=0;left=0;bottom=0;right=0;align=left;spacingLeft=6;" vertex="1" parent="mjQdr636xFa8WtX7F-hk-84">
          <mxGeometry x="30" width="140" height="27" as="geometry">
            <mxRectangle width="140" height="27" as="alternateBounds" />
          </mxGeometry>
        </mxCell>
        <mxCell id="mjQdr636xFa8WtX7F-hk-87" style="shape=partialRectangle;collapsible=0;dropTarget=0;pointerEvents=0;fillColor=none;points=[[0,0.5],[1,0.5]];portConstraint=eastwest;top=0;left=0;right=0;bottom=0;" vertex="1" parent="mjQdr636xFa8WtX7F-hk-68">
          <mxGeometry y="198" width="170" height="27" as="geometry" />
        </mxCell>
        <mxCell id="mjQdr636xFa8WtX7F-hk-88" style="shape=partialRectangle;overflow=hidden;connectable=0;fillColor=none;top=0;left=0;bottom=0;right=0;" vertex="1" parent="mjQdr636xFa8WtX7F-hk-87">
          <mxGeometry width="30" height="27" as="geometry">
            <mxRectangle width="30" height="27" as="alternateBounds" />
          </mxGeometry>
        </mxCell>
        <mxCell id="mjQdr636xFa8WtX7F-hk-89" value="datum_ukonceni" style="shape=partialRectangle;overflow=hidden;connectable=0;fillColor=none;top=0;left=0;bottom=0;right=0;align=left;spacingLeft=6;" vertex="1" parent="mjQdr636xFa8WtX7F-hk-87">
          <mxGeometry x="30" width="140" height="27" as="geometry">
            <mxRectangle width="140" height="27" as="alternateBounds" />
          </mxGeometry>
        </mxCell>
        <mxCell id="mjQdr636xFa8WtX7F-hk-90" value="Transakce" style="shape=table;startSize=30;container=1;collapsible=1;childLayout=tableLayout;fixedRows=1;rowLines=0;fontStyle=1;align=center;resizeLast=1;" vertex="1" parent="1">
          <mxGeometry x="260" y="48" width="170" height="214" as="geometry" />
        </mxCell>
        <mxCell id="mjQdr636xFa8WtX7F-hk-91" value="" style="shape=partialRectangle;collapsible=0;dropTarget=0;pointerEvents=0;fillColor=none;points=[[0,0.5],[1,0.5]];portConstraint=eastwest;top=0;left=0;right=0;bottom=1;" vertex="1" parent="mjQdr636xFa8WtX7F-hk-90">
          <mxGeometry y="30" width="170" height="30" as="geometry" />
        </mxCell>
        <mxCell id="mjQdr636xFa8WtX7F-hk-92" value="PK" style="shape=partialRectangle;overflow=hidden;connectable=0;fillColor=none;top=0;left=0;bottom=0;right=0;fontStyle=1;" vertex="1" parent="mjQdr636xFa8WtX7F-hk-91">
          <mxGeometry width="30" height="30" as="geometry">
            <mxRectangle width="30" height="30" as="alternateBounds" />
          </mxGeometry>
        </mxCell>
        <mxCell id="mjQdr636xFa8WtX7F-hk-93" value="id_transakce" style="shape=partialRectangle;overflow=hidden;connectable=0;fillColor=none;top=0;left=0;bottom=0;right=0;align=left;spacingLeft=6;fontStyle=5;" vertex="1" parent="mjQdr636xFa8WtX7F-hk-91">
          <mxGeometry x="30" width="140" height="30" as="geometry">
            <mxRectangle width="140" height="30" as="alternateBounds" />
          </mxGeometry>
        </mxCell>
        <mxCell id="mjQdr636xFa8WtX7F-hk-94" value="" style="shape=partialRectangle;collapsible=0;dropTarget=0;pointerEvents=0;fillColor=none;points=[[0,0.5],[1,0.5]];portConstraint=eastwest;top=0;left=0;right=0;bottom=0;" vertex="1" parent="mjQdr636xFa8WtX7F-hk-90">
          <mxGeometry y="60" width="170" height="30" as="geometry" />
        </mxCell>
        <mxCell id="mjQdr636xFa8WtX7F-hk-95" value="" style="shape=partialRectangle;overflow=hidden;connectable=0;fillColor=none;top=0;left=0;bottom=0;right=0;" vertex="1" parent="mjQdr636xFa8WtX7F-hk-94">
          <mxGeometry width="30" height="30" as="geometry">
            <mxRectangle width="30" height="30" as="alternateBounds" />
          </mxGeometry>
        </mxCell>
        <mxCell id="mjQdr636xFa8WtX7F-hk-96" value="id_půjčka" style="shape=partialRectangle;overflow=hidden;connectable=0;fillColor=none;top=0;left=0;bottom=0;right=0;align=left;spacingLeft=6;" vertex="1" parent="mjQdr636xFa8WtX7F-hk-94">
          <mxGeometry x="30" width="140" height="30" as="geometry">
            <mxRectangle width="140" height="30" as="alternateBounds" />
          </mxGeometry>
        </mxCell>
        <mxCell id="mjQdr636xFa8WtX7F-hk-97" style="shape=partialRectangle;collapsible=0;dropTarget=0;pointerEvents=0;fillColor=none;points=[[0,0.5],[1,0.5]];portConstraint=eastwest;top=0;left=0;right=0;bottom=0;" vertex="1" parent="mjQdr636xFa8WtX7F-hk-90">
          <mxGeometry y="90" width="170" height="30" as="geometry" />
        </mxCell>
        <mxCell id="mjQdr636xFa8WtX7F-hk-98" style="shape=partialRectangle;overflow=hidden;connectable=0;fillColor=none;top=0;left=0;bottom=0;right=0;" vertex="1" parent="mjQdr636xFa8WtX7F-hk-97">
          <mxGeometry width="30" height="30" as="geometry">
            <mxRectangle width="30" height="30" as="alternateBounds" />
          </mxGeometry>
        </mxCell>
        <mxCell id="mjQdr636xFa8WtX7F-hk-99" value="částka" style="shape=partialRectangle;overflow=hidden;connectable=0;fillColor=none;top=0;left=0;bottom=0;right=0;align=left;spacingLeft=6;" vertex="1" parent="mjQdr636xFa8WtX7F-hk-97">
          <mxGeometry x="30" width="140" height="30" as="geometry">
            <mxRectangle width="140" height="30" as="alternateBounds" />
          </mxGeometry>
        </mxCell>
        <mxCell id="mjQdr636xFa8WtX7F-hk-100" style="shape=partialRectangle;collapsible=0;dropTarget=0;pointerEvents=0;fillColor=none;points=[[0,0.5],[1,0.5]];portConstraint=eastwest;top=0;left=0;right=0;bottom=0;" vertex="1" parent="mjQdr636xFa8WtX7F-hk-90">
          <mxGeometry y="120" width="170" height="30" as="geometry" />
        </mxCell>
        <mxCell id="mjQdr636xFa8WtX7F-hk-101" style="shape=partialRectangle;overflow=hidden;connectable=0;fillColor=none;top=0;left=0;bottom=0;right=0;" vertex="1" parent="mjQdr636xFa8WtX7F-hk-100">
          <mxGeometry width="30" height="30" as="geometry">
            <mxRectangle width="30" height="30" as="alternateBounds" />
          </mxGeometry>
        </mxCell>
        <mxCell id="mjQdr636xFa8WtX7F-hk-102" value="způsob_platby" style="shape=partialRectangle;overflow=hidden;connectable=0;fillColor=none;top=0;left=0;bottom=0;right=0;align=left;spacingLeft=6;" vertex="1" parent="mjQdr636xFa8WtX7F-hk-100">
          <mxGeometry x="30" width="140" height="30" as="geometry">
            <mxRectangle width="140" height="30" as="alternateBounds" />
          </mxGeometry>
        </mxCell>
        <mxCell id="mjQdr636xFa8WtX7F-hk-103" style="shape=partialRectangle;collapsible=0;dropTarget=0;pointerEvents=0;fillColor=none;points=[[0,0.5],[1,0.5]];portConstraint=eastwest;top=0;left=0;right=0;bottom=0;" vertex="1" parent="mjQdr636xFa8WtX7F-hk-90">
          <mxGeometry y="150" width="170" height="27" as="geometry" />
        </mxCell>
        <mxCell id="mjQdr636xFa8WtX7F-hk-104" style="shape=partialRectangle;overflow=hidden;connectable=0;fillColor=none;top=0;left=0;bottom=0;right=0;" vertex="1" parent="mjQdr636xFa8WtX7F-hk-103">
          <mxGeometry width="30" height="27" as="geometry">
            <mxRectangle width="30" height="27" as="alternateBounds" />
          </mxGeometry>
        </mxCell>
        <mxCell id="mjQdr636xFa8WtX7F-hk-105" value="datum_platby" style="shape=partialRectangle;overflow=hidden;connectable=0;fillColor=none;top=0;left=0;bottom=0;right=0;align=left;spacingLeft=6;" vertex="1" parent="mjQdr636xFa8WtX7F-hk-103">
          <mxGeometry x="30" width="140" height="27" as="geometry">
            <mxRectangle width="140" height="27" as="alternateBounds" />
          </mxGeometry>
        </mxCell>
        <mxCell id="mjQdr636xFa8WtX7F-hk-106" style="shape=partialRectangle;collapsible=0;dropTarget=0;pointerEvents=0;fillColor=none;points=[[0,0.5],[1,0.5]];portConstraint=eastwest;top=0;left=0;right=0;bottom=0;" vertex="1" parent="mjQdr636xFa8WtX7F-hk-90">
          <mxGeometry y="177" width="170" height="27" as="geometry" />
        </mxCell>
        <mxCell id="mjQdr636xFa8WtX7F-hk-107" style="shape=partialRectangle;overflow=hidden;connectable=0;fillColor=none;top=0;left=0;bottom=0;right=0;" vertex="1" parent="mjQdr636xFa8WtX7F-hk-106">
          <mxGeometry width="30" height="27" as="geometry">
            <mxRectangle width="30" height="27" as="alternateBounds" />
          </mxGeometry>
        </mxCell>
        <mxCell id="mjQdr636xFa8WtX7F-hk-108" value="stav_platby" style="shape=partialRectangle;overflow=hidden;connectable=0;fillColor=none;top=0;left=0;bottom=0;right=0;align=left;spacingLeft=6;" vertex="1" parent="mjQdr636xFa8WtX7F-hk-106">
          <mxGeometry x="30" width="140" height="27" as="geometry">
            <mxRectangle width="140" height="27" as="alternateBounds" />
          </mxGeometry>
        </mxCell>
        <mxCell id="mjQdr636xFa8WtX7F-hk-109" value="" style="edgeStyle=entityRelationEdgeStyle;fontSize=12;html=1;endArrow=ERmany;rounded=0;" edge="1" parent="1" source="mjQdr636xFa8WtX7F-hk-31" target="mjQdr636xFa8WtX7F-hk-137">
          <mxGeometry width="100" height="100" relative="1" as="geometry">
            <mxPoint x="440" y="110" as="sourcePoint" />
            <mxPoint x="460" y="284" as="targetPoint" />
          </mxGeometry>
        </mxCell>
        <mxCell id="mjQdr636xFa8WtX7F-hk-110" value="Zákazník půjčující kolo" style="edgeLabel;html=1;align=center;verticalAlign=middle;resizable=0;points=[];" vertex="1" connectable="0" parent="mjQdr636xFa8WtX7F-hk-109">
          <mxGeometry x="0.2349" relative="1" as="geometry">
            <mxPoint x="31" y="14" as="offset" />
          </mxGeometry>
        </mxCell>
        <mxCell id="mjQdr636xFa8WtX7F-hk-111" value="" style="edgeStyle=entityRelationEdgeStyle;fontSize=12;html=1;endArrow=ERmany;rounded=0;entryX=0;entryY=0.5;entryDx=0;entryDy=0;" edge="1" parent="1" source="mjQdr636xFa8WtX7F-hk-56" target="mjQdr636xFa8WtX7F-hk-140">
          <mxGeometry width="100" height="100" relative="1" as="geometry">
            <mxPoint x="70" y="140" as="sourcePoint" />
            <mxPoint y="116.5" as="targetPoint" />
          </mxGeometry>
        </mxCell>
        <mxCell id="mjQdr636xFa8WtX7F-hk-112" value="Kolo zapůjčené zákazníkovi" style="edgeLabel;html=1;align=center;verticalAlign=middle;resizable=0;points=[];" vertex="1" connectable="0" parent="mjQdr636xFa8WtX7F-hk-111">
          <mxGeometry x="0.2349" relative="1" as="geometry">
            <mxPoint x="-17" y="16" as="offset" />
          </mxGeometry>
        </mxCell>
        <mxCell id="mjQdr636xFa8WtX7F-hk-113" value="" style="edgeStyle=entityRelationEdgeStyle;fontSize=12;html=1;endArrow=ERmandOne;startArrow=ERmandOne;rounded=0;exitX=1;exitY=0.5;exitDx=0;exitDy=0;entryX=0;entryY=0.5;entryDx=0;entryDy=0;" edge="1" parent="1" source="mjQdr636xFa8WtX7F-hk-146" target="mjQdr636xFa8WtX7F-hk-91">
          <mxGeometry width="100" height="100" relative="1" as="geometry">
            <mxPoint x="-210" y="-60" as="sourcePoint" />
            <mxPoint x="-110" y="-160" as="targetPoint" />
          </mxGeometry>
        </mxCell>
        <mxCell id="mjQdr636xFa8WtX7F-hk-114" value="Platba za půjčku" style="edgeLabel;html=1;align=center;verticalAlign=middle;resizable=0;points=[];" vertex="1" connectable="0" parent="mjQdr636xFa8WtX7F-hk-113">
          <mxGeometry x="0.0222" y="3" relative="1" as="geometry">
            <mxPoint x="1" as="offset" />
          </mxGeometry>
        </mxCell>
        <mxCell id="mjQdr636xFa8WtX7F-hk-115" value="Typ_kola" style="shape=table;startSize=30;container=1;collapsible=1;childLayout=tableLayout;fixedRows=1;rowLines=0;fontStyle=1;align=center;resizeLast=1;html=1;" vertex="1" parent="1">
          <mxGeometry x="-200" y="80" width="180" height="180" as="geometry" />
        </mxCell>
        <mxCell id="mjQdr636xFa8WtX7F-hk-116" value="" style="shape=tableRow;horizontal=0;startSize=0;swimlaneHead=0;swimlaneBody=0;fillColor=none;collapsible=0;dropTarget=0;points=[[0,0.5],[1,0.5]];portConstraint=eastwest;top=0;left=0;right=0;bottom=1;" vertex="1" parent="mjQdr636xFa8WtX7F-hk-115">
          <mxGeometry y="30" width="180" height="30" as="geometry" />
        </mxCell>
        <mxCell id="mjQdr636xFa8WtX7F-hk-117" value="PK" style="shape=partialRectangle;connectable=0;fillColor=none;top=0;left=0;bottom=0;right=0;fontStyle=1;overflow=hidden;whiteSpace=wrap;html=1;" vertex="1" parent="mjQdr636xFa8WtX7F-hk-116">
          <mxGeometry width="30" height="30" as="geometry">
            <mxRectangle width="30" height="30" as="alternateBounds" />
          </mxGeometry>
        </mxCell>
        <mxCell id="mjQdr636xFa8WtX7F-hk-118" value="id_typ_kola" style="shape=partialRectangle;connectable=0;fillColor=none;top=0;left=0;bottom=0;right=0;align=left;spacingLeft=6;fontStyle=5;overflow=hidden;whiteSpace=wrap;html=1;" vertex="1" parent="mjQdr636xFa8WtX7F-hk-116">
          <mxGeometry x="30" width="150" height="30" as="geometry">
            <mxRectangle width="150" height="30" as="alternateBounds" />
          </mxGeometry>
        </mxCell>
        <mxCell id="mjQdr636xFa8WtX7F-hk-119" value="" style="shape=tableRow;horizontal=0;startSize=0;swimlaneHead=0;swimlaneBody=0;fillColor=none;collapsible=0;dropTarget=0;points=[[0,0.5],[1,0.5]];portConstraint=eastwest;top=0;left=0;right=0;bottom=0;" vertex="1" parent="mjQdr636xFa8WtX7F-hk-115">
          <mxGeometry y="60" width="180" height="30" as="geometry" />
        </mxCell>
        <mxCell id="mjQdr636xFa8WtX7F-hk-120" value="" style="shape=partialRectangle;connectable=0;fillColor=none;top=0;left=0;bottom=0;right=0;editable=1;overflow=hidden;whiteSpace=wrap;html=1;" vertex="1" parent="mjQdr636xFa8WtX7F-hk-119">
          <mxGeometry width="30" height="30" as="geometry">
            <mxRectangle width="30" height="30" as="alternateBounds" />
          </mxGeometry>
        </mxCell>
        <mxCell id="mjQdr636xFa8WtX7F-hk-121" value="nazev" style="shape=partialRectangle;connectable=0;fillColor=none;top=0;left=0;bottom=0;right=0;align=left;spacingLeft=6;overflow=hidden;whiteSpace=wrap;html=1;" vertex="1" parent="mjQdr636xFa8WtX7F-hk-119">
          <mxGeometry x="30" width="150" height="30" as="geometry">
            <mxRectangle width="150" height="30" as="alternateBounds" />
          </mxGeometry>
        </mxCell>
        <mxCell id="mjQdr636xFa8WtX7F-hk-122" value="" style="shape=tableRow;horizontal=0;startSize=0;swimlaneHead=0;swimlaneBody=0;fillColor=none;collapsible=0;dropTarget=0;points=[[0,0.5],[1,0.5]];portConstraint=eastwest;top=0;left=0;right=0;bottom=0;" vertex="1" parent="mjQdr636xFa8WtX7F-hk-115">
          <mxGeometry y="90" width="180" height="30" as="geometry" />
        </mxCell>
        <mxCell id="mjQdr636xFa8WtX7F-hk-123" value="" style="shape=partialRectangle;connectable=0;fillColor=none;top=0;left=0;bottom=0;right=0;editable=1;overflow=hidden;whiteSpace=wrap;html=1;" vertex="1" parent="mjQdr636xFa8WtX7F-hk-122">
          <mxGeometry width="30" height="30" as="geometry">
            <mxRectangle width="30" height="30" as="alternateBounds" />
          </mxGeometry>
        </mxCell>
        <mxCell id="mjQdr636xFa8WtX7F-hk-124" value="typ" style="shape=partialRectangle;connectable=0;fillColor=none;top=0;left=0;bottom=0;right=0;align=left;spacingLeft=6;overflow=hidden;whiteSpace=wrap;html=1;" vertex="1" parent="mjQdr636xFa8WtX7F-hk-122">
          <mxGeometry x="30" width="150" height="30" as="geometry">
            <mxRectangle width="150" height="30" as="alternateBounds" />
          </mxGeometry>
        </mxCell>
        <mxCell id="mjQdr636xFa8WtX7F-hk-125" value="" style="shape=tableRow;horizontal=0;startSize=0;swimlaneHead=0;swimlaneBody=0;fillColor=none;collapsible=0;dropTarget=0;points=[[0,0.5],[1,0.5]];portConstraint=eastwest;top=0;left=0;right=0;bottom=0;" vertex="1" parent="mjQdr636xFa8WtX7F-hk-115">
          <mxGeometry y="120" width="180" height="30" as="geometry" />
        </mxCell>
        <mxCell id="mjQdr636xFa8WtX7F-hk-126" value="" style="shape=partialRectangle;connectable=0;fillColor=none;top=0;left=0;bottom=0;right=0;editable=1;overflow=hidden;whiteSpace=wrap;html=1;" vertex="1" parent="mjQdr636xFa8WtX7F-hk-125">
          <mxGeometry width="30" height="30" as="geometry">
            <mxRectangle width="30" height="30" as="alternateBounds" />
          </mxGeometry>
        </mxCell>
        <mxCell id="mjQdr636xFa8WtX7F-hk-127" value="datum_koupi" style="shape=partialRectangle;connectable=0;fillColor=none;top=0;left=0;bottom=0;right=0;align=left;spacingLeft=6;overflow=hidden;whiteSpace=wrap;html=1;" vertex="1" parent="mjQdr636xFa8WtX7F-hk-125">
          <mxGeometry x="30" width="150" height="30" as="geometry">
            <mxRectangle width="150" height="30" as="alternateBounds" />
          </mxGeometry>
        </mxCell>
        <mxCell id="mjQdr636xFa8WtX7F-hk-128" style="shape=tableRow;horizontal=0;startSize=0;swimlaneHead=0;swimlaneBody=0;fillColor=none;collapsible=0;dropTarget=0;points=[[0,0.5],[1,0.5]];portConstraint=eastwest;top=0;left=0;right=0;bottom=0;" vertex="1" parent="mjQdr636xFa8WtX7F-hk-115">
          <mxGeometry y="150" width="180" height="30" as="geometry" />
        </mxCell>
        <mxCell id="mjQdr636xFa8WtX7F-hk-129" style="shape=partialRectangle;connectable=0;fillColor=none;top=0;left=0;bottom=0;right=0;editable=1;overflow=hidden;whiteSpace=wrap;html=1;" vertex="1" parent="mjQdr636xFa8WtX7F-hk-128">
          <mxGeometry width="30" height="30" as="geometry">
            <mxRectangle width="30" height="30" as="alternateBounds" />
          </mxGeometry>
        </mxCell>
        <mxCell id="mjQdr636xFa8WtX7F-hk-130" value="popis" style="shape=partialRectangle;connectable=0;fillColor=none;top=0;left=0;bottom=0;right=0;align=left;spacingLeft=6;overflow=hidden;whiteSpace=wrap;html=1;" vertex="1" parent="mjQdr636xFa8WtX7F-hk-128">
          <mxGeometry x="30" width="150" height="30" as="geometry">
            <mxRectangle width="150" height="30" as="alternateBounds" />
          </mxGeometry>
        </mxCell>
        <mxCell id="mjQdr636xFa8WtX7F-hk-131" value="" style="edgeStyle=entityRelationEdgeStyle;fontSize=12;html=1;endArrow=ERmany;rounded=0;exitX=0;exitY=0.5;exitDx=0;exitDy=0;" edge="1" parent="1" source="mjQdr636xFa8WtX7F-hk-116" target="mjQdr636xFa8WtX7F-hk-59">
          <mxGeometry width="100" height="100" relative="1" as="geometry">
            <mxPoint x="-310" y="55" as="sourcePoint" />
            <mxPoint x="-490" y="352" as="targetPoint" />
          </mxGeometry>
        </mxCell>
        <mxCell id="mjQdr636xFa8WtX7F-hk-132" value="Typ kola pro model" style="edgeLabel;html=1;align=center;verticalAlign=middle;resizable=0;points=[];" vertex="1" connectable="0" parent="mjQdr636xFa8WtX7F-hk-131">
          <mxGeometry x="0.2349" relative="1" as="geometry">
            <mxPoint x="3" y="26" as="offset" />
          </mxGeometry>
        </mxCell>
        <mxCell id="mjQdr636xFa8WtX7F-hk-133" value="Půjčky" style="shape=table;startSize=30;container=1;collapsible=1;childLayout=tableLayout;fixedRows=1;rowLines=0;fontStyle=1;align=center;resizeLast=1;" vertex="1" parent="1">
          <mxGeometry y="-189" width="170" height="239" as="geometry" />
        </mxCell>
        <mxCell id="mjQdr636xFa8WtX7F-hk-134" value="" style="shape=partialRectangle;collapsible=0;dropTarget=0;pointerEvents=0;fillColor=none;points=[[0,0.5],[1,0.5]];portConstraint=eastwest;top=0;left=0;right=0;bottom=1;" vertex="1" parent="mjQdr636xFa8WtX7F-hk-133">
          <mxGeometry y="30" width="170" height="30" as="geometry" />
        </mxCell>
        <mxCell id="mjQdr636xFa8WtX7F-hk-135" value="PK" style="shape=partialRectangle;overflow=hidden;connectable=0;fillColor=none;top=0;left=0;bottom=0;right=0;fontStyle=1;" vertex="1" parent="mjQdr636xFa8WtX7F-hk-134">
          <mxGeometry width="30" height="30" as="geometry">
            <mxRectangle width="30" height="30" as="alternateBounds" />
          </mxGeometry>
        </mxCell>
        <mxCell id="mjQdr636xFa8WtX7F-hk-136" value="id_půjčka" style="shape=partialRectangle;overflow=hidden;connectable=0;fillColor=none;top=0;left=0;bottom=0;right=0;align=left;spacingLeft=6;fontStyle=5;" vertex="1" parent="mjQdr636xFa8WtX7F-hk-134">
          <mxGeometry x="30" width="140" height="30" as="geometry">
            <mxRectangle width="140" height="30" as="alternateBounds" />
          </mxGeometry>
        </mxCell>
        <mxCell id="mjQdr636xFa8WtX7F-hk-137" value="" style="shape=partialRectangle;collapsible=0;dropTarget=0;pointerEvents=0;fillColor=none;points=[[0,0.5],[1,0.5]];portConstraint=eastwest;top=0;left=0;right=0;bottom=0;" vertex="1" parent="mjQdr636xFa8WtX7F-hk-133">
          <mxGeometry y="60" width="170" height="30" as="geometry" />
        </mxCell>
        <mxCell id="mjQdr636xFa8WtX7F-hk-138" value="" style="shape=partialRectangle;overflow=hidden;connectable=0;fillColor=none;top=0;left=0;bottom=0;right=0;" vertex="1" parent="mjQdr636xFa8WtX7F-hk-137">
          <mxGeometry width="30" height="30" as="geometry">
            <mxRectangle width="30" height="30" as="alternateBounds" />
          </mxGeometry>
        </mxCell>
        <mxCell id="mjQdr636xFa8WtX7F-hk-139" value="id_uzivatele" style="shape=partialRectangle;overflow=hidden;connectable=0;fillColor=none;top=0;left=0;bottom=0;right=0;align=left;spacingLeft=6;" vertex="1" parent="mjQdr636xFa8WtX7F-hk-137">
          <mxGeometry x="30" width="140" height="30" as="geometry">
            <mxRectangle width="140" height="30" as="alternateBounds" />
          </mxGeometry>
        </mxCell>
        <mxCell id="mjQdr636xFa8WtX7F-hk-140" style="shape=partialRectangle;collapsible=0;dropTarget=0;pointerEvents=0;fillColor=none;points=[[0,0.5],[1,0.5]];portConstraint=eastwest;top=0;left=0;right=0;bottom=0;" vertex="1" parent="mjQdr636xFa8WtX7F-hk-133">
          <mxGeometry y="90" width="170" height="30" as="geometry" />
        </mxCell>
        <mxCell id="mjQdr636xFa8WtX7F-hk-141" style="shape=partialRectangle;overflow=hidden;connectable=0;fillColor=none;top=0;left=0;bottom=0;right=0;" vertex="1" parent="mjQdr636xFa8WtX7F-hk-140">
          <mxGeometry width="30" height="30" as="geometry">
            <mxRectangle width="30" height="30" as="alternateBounds" />
          </mxGeometry>
        </mxCell>
        <mxCell id="mjQdr636xFa8WtX7F-hk-142" value="id_kolo" style="shape=partialRectangle;overflow=hidden;connectable=0;fillColor=none;top=0;left=0;bottom=0;right=0;align=left;spacingLeft=6;" vertex="1" parent="mjQdr636xFa8WtX7F-hk-140">
          <mxGeometry x="30" width="140" height="30" as="geometry">
            <mxRectangle width="140" height="30" as="alternateBounds" />
          </mxGeometry>
        </mxCell>
        <mxCell id="mjQdr636xFa8WtX7F-hk-146" style="shape=partialRectangle;collapsible=0;dropTarget=0;pointerEvents=0;fillColor=none;points=[[0,0.5],[1,0.5]];portConstraint=eastwest;top=0;left=0;right=0;bottom=0;" vertex="1" parent="mjQdr636xFa8WtX7F-hk-133">
          <mxGeometry y="120" width="170" height="27" as="geometry" />
        </mxCell>
        <mxCell id="mjQdr636xFa8WtX7F-hk-147" style="shape=partialRectangle;overflow=hidden;connectable=0;fillColor=none;top=0;left=0;bottom=0;right=0;" vertex="1" parent="mjQdr636xFa8WtX7F-hk-146">
          <mxGeometry width="30" height="27" as="geometry">
            <mxRectangle width="30" height="27" as="alternateBounds" />
          </mxGeometry>
        </mxCell>
        <mxCell id="mjQdr636xFa8WtX7F-hk-148" value="id_transakce" style="shape=partialRectangle;overflow=hidden;connectable=0;fillColor=none;top=0;left=0;bottom=0;right=0;align=left;spacingLeft=6;" vertex="1" parent="mjQdr636xFa8WtX7F-hk-146">
          <mxGeometry x="30" width="140" height="27" as="geometry">
            <mxRectangle width="140" height="27" as="alternateBounds" />
          </mxGeometry>
        </mxCell>
        <mxCell id="mjQdr636xFa8WtX7F-hk-143" style="shape=partialRectangle;collapsible=0;dropTarget=0;pointerEvents=0;fillColor=none;points=[[0,0.5],[1,0.5]];portConstraint=eastwest;top=0;left=0;right=0;bottom=0;" vertex="1" parent="mjQdr636xFa8WtX7F-hk-133">
          <mxGeometry y="147" width="170" height="30" as="geometry" />
        </mxCell>
        <mxCell id="mjQdr636xFa8WtX7F-hk-144" style="shape=partialRectangle;overflow=hidden;connectable=0;fillColor=none;top=0;left=0;bottom=0;right=0;" vertex="1" parent="mjQdr636xFa8WtX7F-hk-143">
          <mxGeometry width="30" height="30" as="geometry">
            <mxRectangle width="30" height="30" as="alternateBounds" />
          </mxGeometry>
        </mxCell>
        <mxCell id="mjQdr636xFa8WtX7F-hk-145" value="datum_od" style="shape=partialRectangle;overflow=hidden;connectable=0;fillColor=none;top=0;left=0;bottom=0;right=0;align=left;spacingLeft=6;" vertex="1" parent="mjQdr636xFa8WtX7F-hk-143">
          <mxGeometry x="30" width="140" height="30" as="geometry">
            <mxRectangle width="140" height="30" as="alternateBounds" />
          </mxGeometry>
        </mxCell>
        <mxCell id="mjQdr636xFa8WtX7F-hk-218" style="shape=partialRectangle;collapsible=0;dropTarget=0;pointerEvents=0;fillColor=none;points=[[0,0.5],[1,0.5]];portConstraint=eastwest;top=0;left=0;right=0;bottom=0;" vertex="1" parent="mjQdr636xFa8WtX7F-hk-133">
          <mxGeometry y="177" width="170" height="27" as="geometry" />
        </mxCell>
        <mxCell id="mjQdr636xFa8WtX7F-hk-219" style="shape=partialRectangle;overflow=hidden;connectable=0;fillColor=none;top=0;left=0;bottom=0;right=0;" vertex="1" parent="mjQdr636xFa8WtX7F-hk-218">
          <mxGeometry width="30" height="27" as="geometry">
            <mxRectangle width="30" height="27" as="alternateBounds" />
          </mxGeometry>
        </mxCell>
        <mxCell id="mjQdr636xFa8WtX7F-hk-220" value="datum_začátku" style="shape=partialRectangle;overflow=hidden;connectable=0;fillColor=none;top=0;left=0;bottom=0;right=0;align=left;spacingLeft=6;" vertex="1" parent="mjQdr636xFa8WtX7F-hk-218">
          <mxGeometry x="30" width="140" height="27" as="geometry">
            <mxRectangle width="140" height="27" as="alternateBounds" />
          </mxGeometry>
        </mxCell>
        <mxCell id="mjQdr636xFa8WtX7F-hk-221" style="shape=partialRectangle;collapsible=0;dropTarget=0;pointerEvents=0;fillColor=none;points=[[0,0.5],[1,0.5]];portConstraint=eastwest;top=0;left=0;right=0;bottom=0;" vertex="1" parent="mjQdr636xFa8WtX7F-hk-133">
          <mxGeometry y="204" width="170" height="27" as="geometry" />
        </mxCell>
        <mxCell id="mjQdr636xFa8WtX7F-hk-222" style="shape=partialRectangle;overflow=hidden;connectable=0;fillColor=none;top=0;left=0;bottom=0;right=0;" vertex="1" parent="mjQdr636xFa8WtX7F-hk-221">
          <mxGeometry width="30" height="27" as="geometry">
            <mxRectangle width="30" height="27" as="alternateBounds" />
          </mxGeometry>
        </mxCell>
        <mxCell id="mjQdr636xFa8WtX7F-hk-223" value="datum_ukončení" style="shape=partialRectangle;overflow=hidden;connectable=0;fillColor=none;top=0;left=0;bottom=0;right=0;align=left;spacingLeft=6;" vertex="1" parent="mjQdr636xFa8WtX7F-hk-221">
          <mxGeometry x="30" width="140" height="27" as="geometry">
            <mxRectangle width="140" height="27" as="alternateBounds" />
          </mxGeometry>
        </mxCell>
        <mxCell id="mjQdr636xFa8WtX7F-hk-170" value="Opravy" style="shape=table;startSize=30;container=1;collapsible=1;childLayout=tableLayout;fixedRows=1;rowLines=0;fontStyle=1;align=center;resizeLast=1;" vertex="1" parent="1">
          <mxGeometry x="-140" y="-418" width="170" height="184" as="geometry" />
        </mxCell>
        <mxCell id="mjQdr636xFa8WtX7F-hk-171" value="" style="shape=partialRectangle;collapsible=0;dropTarget=0;pointerEvents=0;fillColor=none;points=[[0,0.5],[1,0.5]];portConstraint=eastwest;top=0;left=0;right=0;bottom=1;" vertex="1" parent="mjQdr636xFa8WtX7F-hk-170">
          <mxGeometry y="30" width="170" height="30" as="geometry" />
        </mxCell>
        <mxCell id="mjQdr636xFa8WtX7F-hk-172" value="PK" style="shape=partialRectangle;overflow=hidden;connectable=0;fillColor=none;top=0;left=0;bottom=0;right=0;fontStyle=1;" vertex="1" parent="mjQdr636xFa8WtX7F-hk-171">
          <mxGeometry width="30" height="30" as="geometry">
            <mxRectangle width="30" height="30" as="alternateBounds" />
          </mxGeometry>
        </mxCell>
        <mxCell id="mjQdr636xFa8WtX7F-hk-173" value="id_opravy" style="shape=partialRectangle;overflow=hidden;connectable=0;fillColor=none;top=0;left=0;bottom=0;right=0;align=left;spacingLeft=6;fontStyle=5;" vertex="1" parent="mjQdr636xFa8WtX7F-hk-171">
          <mxGeometry x="30" width="140" height="30" as="geometry">
            <mxRectangle width="140" height="30" as="alternateBounds" />
          </mxGeometry>
        </mxCell>
        <mxCell id="mjQdr636xFa8WtX7F-hk-174" style="shape=partialRectangle;collapsible=0;dropTarget=0;pointerEvents=0;fillColor=none;points=[[0,0.5],[1,0.5]];portConstraint=eastwest;top=0;left=0;right=0;bottom=0;" vertex="1" parent="mjQdr636xFa8WtX7F-hk-170">
          <mxGeometry y="60" width="170" height="30" as="geometry" />
        </mxCell>
        <mxCell id="mjQdr636xFa8WtX7F-hk-175" style="shape=partialRectangle;overflow=hidden;connectable=0;fillColor=none;top=0;left=0;bottom=0;right=0;" vertex="1" parent="mjQdr636xFa8WtX7F-hk-174">
          <mxGeometry width="30" height="30" as="geometry">
            <mxRectangle width="30" height="30" as="alternateBounds" />
          </mxGeometry>
        </mxCell>
        <mxCell id="mjQdr636xFa8WtX7F-hk-176" value="id_kolo" style="shape=partialRectangle;overflow=hidden;connectable=0;fillColor=none;top=0;left=0;bottom=0;right=0;align=left;spacingLeft=6;" vertex="1" parent="mjQdr636xFa8WtX7F-hk-174">
          <mxGeometry x="30" width="140" height="30" as="geometry">
            <mxRectangle width="140" height="30" as="alternateBounds" />
          </mxGeometry>
        </mxCell>
        <mxCell id="mjQdr636xFa8WtX7F-hk-177" style="shape=partialRectangle;collapsible=0;dropTarget=0;pointerEvents=0;fillColor=none;points=[[0,0.5],[1,0.5]];portConstraint=eastwest;top=0;left=0;right=0;bottom=0;" vertex="1" parent="mjQdr636xFa8WtX7F-hk-170">
          <mxGeometry y="90" width="170" height="30" as="geometry" />
        </mxCell>
        <mxCell id="mjQdr636xFa8WtX7F-hk-178" style="shape=partialRectangle;overflow=hidden;connectable=0;fillColor=none;top=0;left=0;bottom=0;right=0;" vertex="1" parent="mjQdr636xFa8WtX7F-hk-177">
          <mxGeometry width="30" height="30" as="geometry">
            <mxRectangle width="30" height="30" as="alternateBounds" />
          </mxGeometry>
        </mxCell>
        <mxCell id="mjQdr636xFa8WtX7F-hk-179" value="id_mechanik" style="shape=partialRectangle;overflow=hidden;connectable=0;fillColor=none;top=0;left=0;bottom=0;right=0;align=left;spacingLeft=6;" vertex="1" parent="mjQdr636xFa8WtX7F-hk-177">
          <mxGeometry x="30" width="140" height="30" as="geometry">
            <mxRectangle width="140" height="30" as="alternateBounds" />
          </mxGeometry>
        </mxCell>
        <mxCell id="mjQdr636xFa8WtX7F-hk-180" style="shape=partialRectangle;collapsible=0;dropTarget=0;pointerEvents=0;fillColor=none;points=[[0,0.5],[1,0.5]];portConstraint=eastwest;top=0;left=0;right=0;bottom=0;" vertex="1" parent="mjQdr636xFa8WtX7F-hk-170">
          <mxGeometry y="120" width="170" height="27" as="geometry" />
        </mxCell>
        <mxCell id="mjQdr636xFa8WtX7F-hk-181" style="shape=partialRectangle;overflow=hidden;connectable=0;fillColor=none;top=0;left=0;bottom=0;right=0;" vertex="1" parent="mjQdr636xFa8WtX7F-hk-180">
          <mxGeometry width="30" height="27" as="geometry">
            <mxRectangle width="30" height="27" as="alternateBounds" />
          </mxGeometry>
        </mxCell>
        <mxCell id="mjQdr636xFa8WtX7F-hk-182" value="datum_konce" style="shape=partialRectangle;overflow=hidden;connectable=0;fillColor=none;top=0;left=0;bottom=0;right=0;align=left;spacingLeft=6;" vertex="1" parent="mjQdr636xFa8WtX7F-hk-180">
          <mxGeometry x="30" width="140" height="27" as="geometry">
            <mxRectangle width="140" height="27" as="alternateBounds" />
          </mxGeometry>
        </mxCell>
        <mxCell id="mjQdr636xFa8WtX7F-hk-183" style="shape=partialRectangle;collapsible=0;dropTarget=0;pointerEvents=0;fillColor=none;points=[[0,0.5],[1,0.5]];portConstraint=eastwest;top=0;left=0;right=0;bottom=0;" vertex="1" parent="mjQdr636xFa8WtX7F-hk-170">
          <mxGeometry y="147" width="170" height="27" as="geometry" />
        </mxCell>
        <mxCell id="mjQdr636xFa8WtX7F-hk-184" style="shape=partialRectangle;overflow=hidden;connectable=0;fillColor=none;top=0;left=0;bottom=0;right=0;" vertex="1" parent="mjQdr636xFa8WtX7F-hk-183">
          <mxGeometry width="30" height="27" as="geometry">
            <mxRectangle width="30" height="27" as="alternateBounds" />
          </mxGeometry>
        </mxCell>
        <mxCell id="mjQdr636xFa8WtX7F-hk-185" value="popis_opravy" style="shape=partialRectangle;overflow=hidden;connectable=0;fillColor=none;top=0;left=0;bottom=0;right=0;align=left;spacingLeft=6;" vertex="1" parent="mjQdr636xFa8WtX7F-hk-183">
          <mxGeometry x="30" width="140" height="27" as="geometry">
            <mxRectangle width="140" height="27" as="alternateBounds" />
          </mxGeometry>
        </mxCell>
        <mxCell id="mjQdr636xFa8WtX7F-hk-186" value="" style="edgeStyle=entityRelationEdgeStyle;fontSize=12;html=1;endArrow=ERmany;rounded=0;" edge="1" parent="1" source="mjQdr636xFa8WtX7F-hk-56" target="mjQdr636xFa8WtX7F-hk-174">
          <mxGeometry width="100" height="100" relative="1" as="geometry">
            <mxPoint x="-230" y="90" as="sourcePoint" />
            <mxPoint x="-210" y="-343" as="targetPoint" />
            <Array as="points">
              <mxPoint x="-360" y="-230" />
              <mxPoint x="-200" y="-200" />
              <mxPoint x="-440" y="-230" />
              <mxPoint x="-260" y="-230" />
              <mxPoint x="-290" y="-91.99000000000001" />
              <mxPoint x="-350" y="-130" />
              <mxPoint x="-430" y="-240" />
            </Array>
          </mxGeometry>
        </mxCell>
        <mxCell id="mjQdr636xFa8WtX7F-hk-228" value="Obhasahuje" style="edgeLabel;html=1;align=center;verticalAlign=middle;resizable=0;points=[];" vertex="1" connectable="0" parent="mjQdr636xFa8WtX7F-hk-186">
          <mxGeometry x="0.0589" y="-1" relative="1" as="geometry">
            <mxPoint as="offset" />
          </mxGeometry>
        </mxCell>
        <mxCell id="mjQdr636xFa8WtX7F-hk-188" value="" style="fontSize=12;html=1;endArrow=ERmany;rounded=0;elbow=vertical;" edge="1" parent="1" source="mjQdr636xFa8WtX7F-hk-31" target="mjQdr636xFa8WtX7F-hk-177">
          <mxGeometry width="100" height="100" relative="1" as="geometry">
            <mxPoint x="-130" y="-320" as="sourcePoint" />
            <mxPoint x="-50" y="-310" as="targetPoint" />
            <Array as="points">
              <mxPoint x="360" y="-115" />
              <mxPoint x="300" y="-310" />
            </Array>
          </mxGeometry>
        </mxCell>
        <mxCell id="mjQdr636xFa8WtX7F-hk-189" value="Mechanik provádí" style="edgeLabel;html=1;align=center;verticalAlign=middle;resizable=0;points=[];" vertex="1" connectable="0" parent="mjQdr636xFa8WtX7F-hk-188">
          <mxGeometry x="-0.3705" y="-1" relative="1" as="geometry">
            <mxPoint x="-165" y="-113" as="offset" />
          </mxGeometry>
        </mxCell>
        <mxCell id="mjQdr636xFa8WtX7F-hk-191" value="" style="edgeStyle=entityRelationEdgeStyle;fontSize=12;html=1;endArrow=ERmany;rounded=0;" edge="1" parent="1" source="mjQdr636xFa8WtX7F-hk-31" target="mjQdr636xFa8WtX7F-hk-75">
          <mxGeometry width="100" height="100" relative="1" as="geometry">
            <mxPoint x="280" y="-586" as="sourcePoint" />
            <mxPoint x="500" y="-385" as="targetPoint" />
            <Array as="points">
              <mxPoint x="270" y="-156.99" />
            </Array>
          </mxGeometry>
        </mxCell>
        <mxCell id="mjQdr636xFa8WtX7F-hk-192" value="Manažer vytváří" style="edgeLabel;html=1;align=center;verticalAlign=middle;resizable=0;points=[];" vertex="1" connectable="0" parent="mjQdr636xFa8WtX7F-hk-191">
          <mxGeometry x="0.079" y="-3" relative="1" as="geometry">
            <mxPoint as="offset" />
          </mxGeometry>
        </mxCell>
        <mxCell id="mjQdr636xFa8WtX7F-hk-213" value="" style="edgeStyle=entityRelationEdgeStyle;fontSize=12;html=1;endArrow=ERmany;rounded=0;entryX=1;entryY=0.5;entryDx=0;entryDy=0;" edge="1" parent="1" source="mjQdr636xFa8WtX7F-hk-56" target="mjQdr636xFa8WtX7F-hk-201">
          <mxGeometry width="100" height="100" relative="1" as="geometry">
            <mxPoint x="-320" y="120" as="sourcePoint" />
            <mxPoint x="-350" y="310" as="targetPoint" />
            <Array as="points">
              <mxPoint x="-520" y="60" />
            </Array>
          </mxGeometry>
        </mxCell>
        <mxCell id="mjQdr636xFa8WtX7F-hk-214" value="Stav kola pro model" style="edgeLabel;html=1;align=center;verticalAlign=middle;resizable=0;points=[];" vertex="1" connectable="0" parent="mjQdr636xFa8WtX7F-hk-213">
          <mxGeometry x="0.2349" relative="1" as="geometry">
            <mxPoint x="3" y="-39" as="offset" />
          </mxGeometry>
        </mxCell>
        <mxCell id="mjQdr636xFa8WtX7F-hk-197" value="Stav_kola" style="shape=table;startSize=30;container=1;collapsible=1;childLayout=tableLayout;fixedRows=1;rowLines=0;fontStyle=1;align=center;resizeLast=1;html=1;" vertex="1" parent="1">
          <mxGeometry x="-740" y="50" width="180" height="210" as="geometry" />
        </mxCell>
        <mxCell id="mjQdr636xFa8WtX7F-hk-198" value="" style="shape=tableRow;horizontal=0;startSize=0;swimlaneHead=0;swimlaneBody=0;fillColor=none;collapsible=0;dropTarget=0;points=[[0,0.5],[1,0.5]];portConstraint=eastwest;top=0;left=0;right=0;bottom=1;" vertex="1" parent="mjQdr636xFa8WtX7F-hk-197">
          <mxGeometry y="30" width="180" height="30" as="geometry" />
        </mxCell>
        <mxCell id="mjQdr636xFa8WtX7F-hk-199" value="PK" style="shape=partialRectangle;connectable=0;fillColor=none;top=0;left=0;bottom=0;right=0;fontStyle=1;overflow=hidden;whiteSpace=wrap;html=1;" vertex="1" parent="mjQdr636xFa8WtX7F-hk-198">
          <mxGeometry width="30" height="30" as="geometry">
            <mxRectangle width="30" height="30" as="alternateBounds" />
          </mxGeometry>
        </mxCell>
        <mxCell id="mjQdr636xFa8WtX7F-hk-200" value="id_stav_kola" style="shape=partialRectangle;connectable=0;fillColor=none;top=0;left=0;bottom=0;right=0;align=left;spacingLeft=6;fontStyle=5;overflow=hidden;whiteSpace=wrap;html=1;" vertex="1" parent="mjQdr636xFa8WtX7F-hk-198">
          <mxGeometry x="30" width="150" height="30" as="geometry">
            <mxRectangle width="150" height="30" as="alternateBounds" />
          </mxGeometry>
        </mxCell>
        <mxCell id="mjQdr636xFa8WtX7F-hk-207" value="" style="shape=tableRow;horizontal=0;startSize=0;swimlaneHead=0;swimlaneBody=0;fillColor=none;collapsible=0;dropTarget=0;points=[[0,0.5],[1,0.5]];portConstraint=eastwest;top=0;left=0;right=0;bottom=0;" vertex="1" parent="mjQdr636xFa8WtX7F-hk-197">
          <mxGeometry y="60" width="180" height="30" as="geometry" />
        </mxCell>
        <mxCell id="mjQdr636xFa8WtX7F-hk-208" value="" style="shape=partialRectangle;connectable=0;fillColor=none;top=0;left=0;bottom=0;right=0;editable=1;overflow=hidden;whiteSpace=wrap;html=1;" vertex="1" parent="mjQdr636xFa8WtX7F-hk-207">
          <mxGeometry width="30" height="30" as="geometry">
            <mxRectangle width="30" height="30" as="alternateBounds" />
          </mxGeometry>
        </mxCell>
        <mxCell id="mjQdr636xFa8WtX7F-hk-209" value="id_uzivatele" style="shape=partialRectangle;connectable=0;fillColor=none;top=0;left=0;bottom=0;right=0;align=left;spacingLeft=6;overflow=hidden;whiteSpace=wrap;html=1;" vertex="1" parent="mjQdr636xFa8WtX7F-hk-207">
          <mxGeometry x="30" width="150" height="30" as="geometry">
            <mxRectangle width="150" height="30" as="alternateBounds" />
          </mxGeometry>
        </mxCell>
        <mxCell id="mjQdr636xFa8WtX7F-hk-201" value="" style="shape=tableRow;horizontal=0;startSize=0;swimlaneHead=0;swimlaneBody=0;fillColor=none;collapsible=0;dropTarget=0;points=[[0,0.5],[1,0.5]];portConstraint=eastwest;top=0;left=0;right=0;bottom=0;" vertex="1" parent="mjQdr636xFa8WtX7F-hk-197">
          <mxGeometry y="90" width="180" height="30" as="geometry" />
        </mxCell>
        <mxCell id="mjQdr636xFa8WtX7F-hk-202" value="" style="shape=partialRectangle;connectable=0;fillColor=none;top=0;left=0;bottom=0;right=0;editable=1;overflow=hidden;whiteSpace=wrap;html=1;" vertex="1" parent="mjQdr636xFa8WtX7F-hk-201">
          <mxGeometry width="30" height="30" as="geometry">
            <mxRectangle width="30" height="30" as="alternateBounds" />
          </mxGeometry>
        </mxCell>
        <mxCell id="mjQdr636xFa8WtX7F-hk-203" value="id_kolo" style="shape=partialRectangle;connectable=0;fillColor=none;top=0;left=0;bottom=0;right=0;align=left;spacingLeft=6;overflow=hidden;whiteSpace=wrap;html=1;" vertex="1" parent="mjQdr636xFa8WtX7F-hk-201">
          <mxGeometry x="30" width="150" height="30" as="geometry">
            <mxRectangle width="150" height="30" as="alternateBounds" />
          </mxGeometry>
        </mxCell>
        <mxCell id="mjQdr636xFa8WtX7F-hk-215" style="shape=tableRow;horizontal=0;startSize=0;swimlaneHead=0;swimlaneBody=0;fillColor=none;collapsible=0;dropTarget=0;points=[[0,0.5],[1,0.5]];portConstraint=eastwest;top=0;left=0;right=0;bottom=0;" vertex="1" parent="mjQdr636xFa8WtX7F-hk-197">
          <mxGeometry y="120" width="180" height="30" as="geometry" />
        </mxCell>
        <mxCell id="mjQdr636xFa8WtX7F-hk-216" style="shape=partialRectangle;connectable=0;fillColor=none;top=0;left=0;bottom=0;right=0;editable=1;overflow=hidden;whiteSpace=wrap;html=1;" vertex="1" parent="mjQdr636xFa8WtX7F-hk-215">
          <mxGeometry width="30" height="30" as="geometry">
            <mxRectangle width="30" height="30" as="alternateBounds" />
          </mxGeometry>
        </mxCell>
        <mxCell id="mjQdr636xFa8WtX7F-hk-217" value="datum_kontroly" style="shape=partialRectangle;connectable=0;fillColor=none;top=0;left=0;bottom=0;right=0;align=left;spacingLeft=6;overflow=hidden;whiteSpace=wrap;html=1;" vertex="1" parent="mjQdr636xFa8WtX7F-hk-215">
          <mxGeometry x="30" width="150" height="30" as="geometry">
            <mxRectangle width="150" height="30" as="alternateBounds" />
          </mxGeometry>
        </mxCell>
        <mxCell id="mjQdr636xFa8WtX7F-hk-204" value="" style="shape=tableRow;horizontal=0;startSize=0;swimlaneHead=0;swimlaneBody=0;fillColor=none;collapsible=0;dropTarget=0;points=[[0,0.5],[1,0.5]];portConstraint=eastwest;top=0;left=0;right=0;bottom=0;" vertex="1" parent="mjQdr636xFa8WtX7F-hk-197">
          <mxGeometry y="150" width="180" height="30" as="geometry" />
        </mxCell>
        <mxCell id="mjQdr636xFa8WtX7F-hk-205" value="" style="shape=partialRectangle;connectable=0;fillColor=none;top=0;left=0;bottom=0;right=0;editable=1;overflow=hidden;whiteSpace=wrap;html=1;" vertex="1" parent="mjQdr636xFa8WtX7F-hk-204">
          <mxGeometry width="30" height="30" as="geometry">
            <mxRectangle width="30" height="30" as="alternateBounds" />
          </mxGeometry>
        </mxCell>
        <mxCell id="mjQdr636xFa8WtX7F-hk-206" value="stav" style="shape=partialRectangle;connectable=0;fillColor=none;top=0;left=0;bottom=0;right=0;align=left;spacingLeft=6;overflow=hidden;whiteSpace=wrap;html=1;" vertex="1" parent="mjQdr636xFa8WtX7F-hk-204">
          <mxGeometry x="30" width="150" height="30" as="geometry">
            <mxRectangle width="150" height="30" as="alternateBounds" />
          </mxGeometry>
        </mxCell>
        <mxCell id="mjQdr636xFa8WtX7F-hk-210" style="shape=tableRow;horizontal=0;startSize=0;swimlaneHead=0;swimlaneBody=0;fillColor=none;collapsible=0;dropTarget=0;points=[[0,0.5],[1,0.5]];portConstraint=eastwest;top=0;left=0;right=0;bottom=0;" vertex="1" parent="mjQdr636xFa8WtX7F-hk-197">
          <mxGeometry y="180" width="180" height="30" as="geometry" />
        </mxCell>
        <mxCell id="mjQdr636xFa8WtX7F-hk-211" style="shape=partialRectangle;connectable=0;fillColor=none;top=0;left=0;bottom=0;right=0;editable=1;overflow=hidden;whiteSpace=wrap;html=1;" vertex="1" parent="mjQdr636xFa8WtX7F-hk-210">
          <mxGeometry width="30" height="30" as="geometry">
            <mxRectangle width="30" height="30" as="alternateBounds" />
          </mxGeometry>
        </mxCell>
        <mxCell id="mjQdr636xFa8WtX7F-hk-212" value="komentar" style="shape=partialRectangle;connectable=0;fillColor=none;top=0;left=0;bottom=0;right=0;align=left;spacingLeft=6;overflow=hidden;whiteSpace=wrap;html=1;" vertex="1" parent="mjQdr636xFa8WtX7F-hk-210">
          <mxGeometry x="30" width="150" height="30" as="geometry">
            <mxRectangle width="150" height="30" as="alternateBounds" />
          </mxGeometry>
        </mxCell>
        <mxCell id="mjQdr636xFa8WtX7F-hk-224" value="" style="edgeStyle=elbowEdgeStyle;fontSize=12;html=1;endArrow=ERmany;rounded=0;" edge="1" parent="1" source="mjQdr636xFa8WtX7F-hk-56" target="mjQdr636xFa8WtX7F-hk-72">
          <mxGeometry width="100" height="100" relative="1" as="geometry">
            <mxPoint x="-80" y="93" as="sourcePoint" />
            <mxPoint x="-370" y="-530" as="targetPoint" />
            <Array as="points">
              <mxPoint x="-260" y="-320" />
            </Array>
          </mxGeometry>
        </mxCell>
        <mxCell id="mjQdr636xFa8WtX7F-hk-225" value="&lt;span lang=&quot;ru&quot;&gt;&lt;span class=&quot;bold&quot;&gt;Souvisí&lt;/span&gt;&lt;/span&gt;" style="edgeLabel;html=1;align=center;verticalAlign=middle;resizable=0;points=[];" vertex="1" connectable="0" parent="mjQdr636xFa8WtX7F-hk-224">
          <mxGeometry x="0.2349" relative="1" as="geometry">
            <mxPoint x="-52" y="-13" as="offset" />
          </mxGeometry>
        </mxCell>
      </root>
    </mxGraphModel>
  </diagram>
</mxfile>
